<?xml version="1.0" encoding="utf-8"?>
<!-- Generator: Adobe Illustrator 22.0.0, SVG Export Plug-In . SVG Version: 6.00 Build 0)  -->
<svg version="1.1" id="Capa_1" xmlns="http://www.w3.org/2000/svg" xmlns:xlink="http://www.w3.org/1999/xlink" x="0px" y="0px"
	 viewBox="0 0 168.7 168.2" style="enable-background:new 0 0 168.7 168.2;" xml:space="preserve">
<style type="text/css">
	.st0{fill:#A2903D;stroke:#232245;stroke-miterlimit:10;}
</style>
<path class="st0" d="M83.9,41.2c-2.1,0-4.2-1-5.8-2.6c-1.5-1.6-2.4-3.7-2.3-5.7c0.1-4.2,4-8.1,8.2-8.1h0.1c2,0,4.1,1,5.7,2.6
	s2.5,3.7,2.4,5.7C92.1,37.4,88.3,41.1,83.9,41.2L83.9,41.2z"/>
<path class="st0" d="M42.8,50.6c-4.3-0.2-7.9-3.8-7.9-8.1c0-2.1,0.8-4.2,2.3-5.7c1.5-1.6,3.6-2.4,5.9-2.4h0.1c2.2,0,4.3,1,5.9,2.6
	c1.5,1.6,2.3,3.6,2.2,5.7c-0.1,4.3-3.9,7.9-8.3,7.9C43,50.6,42.9,50.6,42.8,50.6z"/>
<path class="st0" d="M125.8,57.9c-2.2,0-4.3-1-5.9-2.6c-1.5-1.6-2.3-3.6-2.2-5.7c0.2-4.2,3.9-7.9,8.1-8h0.1c4.4,0,8.2,3.8,8.2,8.2
	c0,2.1-0.8,4.2-2.3,5.7C130.2,57.1,128.2,57.9,125.8,57.9L125.8,57.9z"/>
<g>
	<path class="st0" d="M41.9,65.6c0.4-0.2,0.9-0.3,1.4-0.3c0.4,0,0.8,0.1,1.1,0.2l4.8-11.6c-0.3,0-0.7,0-1.1,0l0,0H48
		c-3.6,0-6.5,0-10.2,0c-0.3,0-0.6,0-0.8,0L41.9,65.6z"/>
	<path class="st0" d="M66.4,83.7L64,78.5c-1.8-4-3.7-8-5.5-12.1c-1.3-2.9-2.6-5.7-3.9-8.5c-0.2-0.5-1-2.3-1.5-3c0,0-0.6-0.4-1.7-0.7
		l-5.1,12.3c0.6,0.7,1,1.6,1,2.6c0,2.1-1.7,3.9-3.9,3.9c-2.1,0-3.9-1.7-3.9-3.9c0-0.9,0.3-1.7,0.8-2.3l-5.2-12.5
		c-1,0.4-1.5,0.8-1.5,0.8c0,0.1-0.1,0.1-0.1,0.2l0,0c-0.1,0.1-0.1,0.2-0.2,0.2c-0.2,0.3-0.4,0.5-0.5,0.7l0,0
		c-0.4,0.6-0.9,1.3-1.1,1.6c-1.3,2.8-2.6,5.7-3.9,8.5c-1.9,4.1-3.7,8.1-5.5,12.1l-2.4,5.2c-0.5,1.2-1.2,2.8-0.7,4
		c0.2,0.6,0.8,1.1,1.6,1.5c0.5,0.2,1,0.3,1.4,0.3c1.4,0,2.2-1.3,3.3-3.5c0.8-1.6,1.5-3.1,2.3-4.7c0.3-0.6,0.6-1.2,0.9-1.8
		c0.4-0.9,0.9-1.9,1.3-2.8l2.8-5.9v30.7l0,0c0.1,6.7,0.1,13.4,0.1,20c0,4.1,1.1,5.7,3.9,5.7l0,0c2.8,0,3.8-1.7,3.8-5.8
		c-0.1-8-0.1-15.2,0.1-22.5c0-1.1,0.6-2,1.1-2.9c0.2-0.3,0.4-0.7,0.6-1l0.9-1.9l0.9,1.9c0.2,0.3,0.4,0.7,0.6,1
		c0.5,0.9,1.1,1.8,1.1,2.9c0.1,5.7,0.1,11.5,0.1,17c0,1.8,0,3.7,0,5.5c0,4.1,1.1,5.7,3.9,5.7l0,0c2.7,0,3.8-1.7,3.8-5.8
		c0-9.8,0-19.8,0-29.6l0,0V70.7v0.2l2.8,5.9c0.4,0.9,0.9,1.9,1.3,2.8c0.3,0.6,0.6,1.2,0.9,1.8c0.7,1.6,1.5,3.1,2.3,4.7
		c1.1,2.2,2,3.5,3.3,3.5c0.4,0,0.9-0.1,1.4-0.3c0.9-0.4,1.4-0.9,1.6-1.5C67.5,86.6,66.9,84.9,66.4,83.7z"/>
</g>
<g>
	<path class="st0" d="M82.8,56.4c0.4-0.2,0.9-0.3,1.4-0.3c0.4,0,0.8,0.1,1.1,0.2l4.8-11.7c-0.4,0-0.8-0.1-1.3-0.1
		c-3.3,0-7.3,0-10.2,0c-0.3,0-0.5,0-0.7,0L82.8,56.4z"/>
	<path class="st0" d="M109.1,21c-0.5-0.2-1-0.3-1.4-0.3c-1.7,0-2.3,1.7-3.2,4.3l-0.1,0.3c-0.4,1.1-0.7,2.3-1.1,3.4
		c-0.9,3-1.9,6-3.1,9c-0.7,1.8-6.3,6.4-8.1,7.3L87,57.4c0.6,0.7,1,1.6,1,2.6c0,2.1-1.7,3.9-3.9,3.9c-2.1,0-3.9-1.7-3.9-3.9
		c0-0.9,0.3-1.7,0.8-2.3L75.8,45c-1.5-0.5-7.9-4.8-9.5-11.4c-0.2-0.8-0.4-1.5-0.7-2.2c-0.7-2.5-1.5-5.2-2.7-7.4
		c-0.7-1.3-2.8-2.8-3.9-2.8h-0.1c-0.8,0.1-1.3,0.4-1.7,0.9c-0.5,0.8-0.5,2.1,0.1,3.7c0.3,0.9,0.6,1.9,0.9,2.8
		c1.2,3.4,1.8,7.2,3.3,10.6c2,4.5,3.7,6.4,8,9.2c1.3,0.9,3.9,2.3,3.9,4c0.1,5.1,0.2,10.2,0.2,15.2l0,0v20.3l0,0v8.4
		c0,4.8,0,9.7,0,14.5v0.7c0,3.8,0.2,6.1,3.7,6.1h0.1c1.3,0,2.2-0.3,2.8-0.9c1.1-1.1,1.1-3.2,1.1-5.3v-0.8c0-2.6,0-5.2,0-7.8
		c0-4.3,0-8.8,0.1-13.2c0-1.1,0.7-2.1,1.3-3.1c0.2-0.4,0.5-0.7,0.7-1.1l1-2l0.8,2.1c0.1,0.4,0.3,0.7,0.5,1.1c0.5,0.9,0.9,1.9,1,3
		c0.1,4.8,0.1,9.7,0.1,14.5c0,2.8,0,5.7,0,8.5c0,3.7,1.1,5.2,3.8,5.2l0,0c2.7,0,3.7-1.5,3.8-5.3c0-3.4,0-6.7,0-10.1v-5.2l0,0v-6.7
		l0,0v-3.9c0-2.9,0-5.8,0-8.8c0-7.4,0.1-15.1-0.1-22.6c-0.1-2.8,1.1-4.7,4.8-7.3c3.6-2.5,5.3-3.8,7.1-8.1c1.1-2.7,1.7-5.6,2.6-8.3
		c0.5-1.4,1-2.7,1.4-4.1l0.2-0.5C111.4,23.5,111.7,22,109.1,21z"/>
</g>
<g>
	<path class="st0" d="M149.7,92.7l-2.4-5.2c-1.8-4-3.7-8-5.5-12.1c-1.3-2.9-2.6-5.7-3.9-8.5c-0.2-0.5-1-2.3-1.5-3l0,0v-0.1
		c-0.2-0.3-0.4-0.5-0.6-0.8c-0.1-0.1-0.2-0.2-0.2-0.3l0,0c0,0-0.6-0.6-1.7-1.1L129,73.4c0.6,0.7,1,1.6,1,2.6c0,2.1-1.7,3.9-3.9,3.9
		c-2.1,0-3.9-1.7-3.9-3.9c0-0.9,0.3-1.7,0.8-2.3l-5.1-12.3c-1.2,0.4-1.9,0.9-1.9,0.9v0.2h-0.1l-0.4,0.9c-0.5,0.6-1.6,3.2-1.9,3.7
		c-1.3,2.8-2.6,5.7-3.9,8.5c-1.9,4.1-3.7,8.1-5.5,12.1l-2.4,5.2c-0.5,1.2-1.2,2.8-0.7,4c0.2,0.6,0.8,1.1,1.6,1.5
		c0.5,0.2,1,0.3,1.4,0.3c1.4,0,2.2-1.3,3.3-3.5c0.8-1.6,1.5-3.1,2.3-4.7c0.3-0.6,0.6-1.2,0.9-1.8c0.4-0.9,0.9-1.9,1.3-2.8l3.7-6.9
		v3.2v14.3c0,10.9,0,21.6,0,32.3c0,3.8,0.6,5.8,3.6,5.9h0.2c3.2,0,3.8-2.1,3.8-6c0-2.2,0-4.5,0-6.8c0-4.8,0-9.8,0.1-14.8
		c0-1.2,0.6-2.3,1.2-3.4c0.2-0.4,0.5-0.9,0.6-1.3l1-2.3l0.9,2.4c0.1,0.4,0.3,0.8,0.5,1.2c0.5,1,0.9,2.1,1,3.2
		c0.1,3.7,0.1,7.6,0.1,11.2c0,3.9,0,7.8,0.1,11.8c0.1,3.1,1.9,5,3.6,5c0.6,0,1.2-0.2,1.8-0.7c1.3-1.1,2.1-3.5,2.1-5.3
		c0.2-7.6,0.2-15.4,0.1-22.9c0-2.7,0-5.4,0-8.1V82v-2.4l3.3,6.3c0.4,0.9,0.9,1.9,1.3,2.8c0.3,0.6,0.6,1.2,0.9,1.8
		c0.7,1.6,1.5,3.1,2.3,4.7c1.1,2.2,2,3.5,3.3,3.5c0.4,0,0.9-0.1,1.4-0.3c0.9-0.4,1.4-0.9,1.6-1.5C150.9,95.6,150.2,93.9,149.7,92.7z
		"/>
	<path class="st0" d="M124.7,72.3c0.4-0.2,0.9-0.3,1.4-0.3c0.4,0,0.8,0.1,1.1,0.2l4.6-11.2c-0.4-0.1-0.8-0.1-1.3-0.1
		c-3.3,0-7.3,0-10.2,0c-0.2,0-0.3,0-0.4,0L124.7,72.3z"/>
</g>
<polygon class="st0" points="101.7,142.5 101.7,134.7 101.7,124.2 66.4,124.2 66.4,134.7 25.7,134.7 25.7,149.1 144.6,149.1 
	144.6,142.5 "/>
</svg>
