<?xml version="1.0" encoding="utf-8"?>
<!-- Generator: Adobe Illustrator 22.0.0, SVG Export Plug-In . SVG Version: 6.00 Build 0)  -->
<svg version="1.1" id="Capa_1" xmlns="http://www.w3.org/2000/svg" xmlns:xlink="http://www.w3.org/1999/xlink" x="0px" y="0px"
	 viewBox="0 0 168.7 168.2" style="enable-background:new 0 0 168.7 168.2;" xml:space="preserve">
<style type="text/css">
	.st0{fill:#A2903D;stroke:#232245;stroke-miterlimit:10;}
</style>
<g>
	
		<rect x="55.9" y="17.5" transform="matrix(1.085599e-02 -0.9999 0.9999 1.085599e-02 12.5788 102.0951)" class="st0" width="4" height="54.4"/>
	<path class="st0" d="M13.1,34.7c-0.6,0.3-0.9,0.7-0.9,1.1v2.4l-0.1,12v2.4c0,0.4,0.3,0.8,0.9,1.1c0.6,0.3,1.4,0.5,2.3,0.5H19
		l0.2-20h-3.7C14.5,34.2,13.7,34.3,13.1,34.7z"/>
	<path class="st0" d="M5.5,39.6c-0.6,0.4-0.9,0.9-0.9,1.5L4.5,47c0,0.6,0.3,1.1,0.9,1.5c0.5,0.4,1.1,0.6,1.8,0.6h2.5l0.1-10H7.3
		C6.6,39.1,6,39.3,5.5,39.6z"/>
	<path class="st0" d="M25,28.3c-0.9,0-1.8,0.2-2.5,0.5c-0.6,0.3-1,0.8-1,1.3v3.2l-0.2,22v3.2c0,0.5,0.3,0.9,1,1.3
		c1.3,0.7,3.6,0.7,4.9,0.1c0.6-0.3,1-0.8,1-1.3l0.1-11.2l0.1-6l0.1-11.2c0-0.5-0.3-0.9-1-1.3C26.8,28.5,25.9,28.3,25,28.3z"/>
	<path class="st0" d="M102.7,54c0.6-0.3,0.9-0.7,0.9-1.1v-2.4v-12v-2.4c0-0.4-0.3-0.8-0.9-1.1s-1.4-0.5-2.3-0.5h-3.7v20h3.7
		C101.3,54.5,102.1,54.3,102.7,54z"/>
	<path class="st0" d="M110.3,48.9c0.6-0.4,0.9-1,0.9-1.5v-5.9c0-0.6-0.3-1.1-0.9-1.5c-0.5-0.3-1.1-0.5-1.8-0.5H106v10h2.5
		C109.1,49.5,109.8,49.3,110.3,48.9z"/>
	<path class="st0" d="M90.8,60.5c0.9,0,1.8-0.2,2.5-0.6c0.6-0.3,1-0.8,1-1.3v-3.2v-22v-3.2c0-0.5-0.3-0.9-1-1.3
		c-1.3-0.7-3.6-0.7-4.9,0c-0.6,0.3-1,0.8-1,1.3v11.2v6v11.2c0,0.5,0.3,0.9,1,1.3C89,60.3,89.9,60.5,90.8,60.5z"/>
</g>
<g>
	<path class="st0" d="M119.5,93.9c-2.3,0-4.6,0.3-6.7,0.9l-7.9-21.7h14.6c2.7,0,4.7,0.9,5.6,2.6c0.6,1.1,0.6,2.4-0.1,3.5
		c-1.2,1.9-4.2,2.9-8,2.6c-1.3-0.1-2.5,0.9-2.6,2.2c-0.1,1.3,0.9,2.5,2.2,2.6c5.7,0.4,10.2-1.3,12.4-4.8c1.7-2.6,1.8-5.7,0.3-8.4
		c-1.7-3.2-5.4-5.1-9.8-5.1h-18c-0.8,0-1.5,0.4-2,1c-0.4,0.6-0.6,1.5-0.3,2.2l2.7,7.6H61.5l-1.3-3.6h6.5c1.3,0,2.4-1.1,2.4-2.4
		s-1.1-2.4-2.4-2.4H51.1c-1.3,0-2.4,1.1-2.4,2.4s1.1,2.4,2.4,2.4h4c0,0.2,0.1,0.3,0.1,0.5l1.7,4.6l-9.7,16.1
		C43.7,95,39.7,94,35.5,94c-14.6,0-26.4,11.9-26.4,26.4c0,14.6,11.8,26.4,26.4,26.4c13.5,0,24.6-10.2,26.2-23.3h5.9
		c1.2,2.2,3.6,3.7,6.3,3.7c4,0,7.2-3.2,7.2-7.2c0-1.3-0.3-2.5-0.9-3.5l24.2-30.7l3.9,10.7c-9,4.2-15.2,13.3-15.2,23.9
		c0,14.6,11.8,26.4,26.4,26.4s26.4-11.8,26.4-26.4C145.9,105.8,134.1,93.9,119.5,93.9 M99.8,83.9l-23.2,29.4
		c-0.8-0.3-1.7-0.5-2.7-0.5c-0.1,0-0.2,0-0.3,0L63.2,83.9H99.8L99.8,83.9z M59,86.4l10.2,28.1c-1.2,1-2.1,2.5-2.4,4.1h-5
		c-0.5-8-4.5-15-10.6-19.5L59,86.4z M57,118.6H39.5l9.3-15.4C53.4,106.9,56.5,112.4,57,118.6 M35.5,141.9
		c-11.9,0-21.6-9.7-21.6-21.6s9.7-21.6,21.6-21.6c3.3,0,6.4,0.8,9.2,2.1l-11.2,18.5c-0.3,0.5-0.4,1-0.3,1.5c0,0.1,0,0.2,0,0.3
		c0,1.3,1.1,2.4,2.4,2.4h21.3C55.3,133.9,46.4,141.9,35.5,141.9 M73.9,122.3c-1.3,0-2.4-1.1-2.4-2.4s1.1-2.4,2.4-2.4
		s2.4,1.1,2.4,2.4C76.3,121.3,75.2,122.3,73.9,122.3 M119.5,141.9c-11.9,0-21.6-9.7-21.6-21.6c0-8.5,4.9-15.8,12-19.3l7.3,20.2
		c0.3,1,1.3,1.6,2.3,1.6c0.3,0,0.5,0,0.8-0.1c1.2-0.4,1.9-1.8,1.4-3.1l-7.3-20.2c1.6-0.4,3.3-0.6,5.1-0.6c11.9,0,21.6,9.7,21.6,21.6
		C141.1,132.2,131.4,141.9,119.5,141.9"/>
</g>
<path class="st0" d="M151.2,44.9c2.9,4.1,1.3,12-4.9,24.1c5.9-0.8,11-3.9,14.3-8.4c-0.8-7.4-3.2-13.4-7.2-18.1
	C152.7,43.3,151.9,44.1,151.2,44.9z"/>
<path class="st0" d="M150.5,45.6c-5.7,5.8-11.9,10.9-18,15.9c-1,0.8-1.9,1.6-2.9,2.4c3.7,3.2,8.6,5.2,14,5.2c0.6,0,1.1,0,1.6-0.1
	C151.2,57.3,153,49.5,150.5,45.6z"/>
<path class="st0" d="M150.5,44.1c0.8-0.8,1.5-1.6,2.2-2.4c-5.1-5.5-12.7-9-22.9-10.4c-4.6,3.8-7.5,9.4-7.8,15.7
	C137.4,41.1,146.7,40.1,150.5,44.1z"/>
<path class="st0" d="M149.9,44.8c-3.5-3.7-12.6-2.7-27.7,3.2c0.1,6,2.6,11.4,6.7,15.2c1-0.8,2-1.6,3-2.5
	C137.9,55.8,144.2,50.6,149.9,44.8z"/>
<path class="st0" d="M164.7,45.5c-0.5-4.3-2.2-8.2-4.8-11.3c-1.2,1.7-2.5,3.4-3.8,5.1C158.5,41.8,161.4,43.9,164.7,45.5z"/>
<path class="st0" d="M153.4,40.9c0.5-0.6,1-1.1,1.5-1.7c-2.8-3.3-4.9-7.4-6.3-12.2c-1.6-0.4-3.3-0.6-5.1-0.6c-4.7,0-9,1.5-12.5,4.1
	C140.8,32,148.3,35.5,153.4,40.9z"/>
<path class="st0" d="M159.3,33.4c-2.6-2.8-5.9-5-9.6-6.1c1.3,4.4,3.3,8.1,5.9,11.2C156.8,36.8,158.1,35.2,159.3,33.4z"/>
<path class="st0" d="M155.5,40c-0.5,0.6-1,1.1-1.5,1.7c4,4.6,6.4,10.4,7.4,17.6c2.1-3.3,3.4-7.3,3.4-11.5c0-0.4,0-0.8,0-1.2
	C161.2,45,158.1,42.8,155.5,40z"/>
</svg>
