<?xml version="1.0" encoding="utf-8"?>
<!-- Generator: Adobe Illustrator 22.0.0, SVG Export Plug-In . SVG Version: 6.00 Build 0)  -->
<svg version="1.1" id="Capa_1" xmlns="http://www.w3.org/2000/svg" xmlns:xlink="http://www.w3.org/1999/xlink" x="0px" y="0px"
	 viewBox="0 0 168.7 168.2" style="enable-background:new 0 0 168.7 168.2;" xml:space="preserve">
<style type="text/css">
	.st0{fill:#A2903D;stroke:#232245;stroke-miterlimit:10;}
</style>
<g>
	<path class="st0" d="M38.5,49.1c-4.3-0.2-7.9-3.8-7.9-8.1c0-2.1,0.8-4.2,2.3-5.7c1.5-1.6,3.6-2.4,5.9-2.4h0.1c2.2,0,4.3,1,5.9,2.6
		c1.5,1.6,2.3,3.6,2.2,5.7c-0.1,4.3-3.9,7.9-8.3,7.9C38.7,49.1,38.6,49.1,38.5,49.1z"/>
	<path class="st0" d="M84.5,49.1c-4.3-0.2-7.9-3.8-7.9-8.1c0-2.1,0.8-4.2,2.3-5.7c1.5-1.6,3.6-2.4,5.9-2.4h0.1c2.2,0,4.3,1,5.9,2.6
		c1.5,1.6,2.3,3.6,2.2,5.7c-0.1,4.3-3.9,7.9-8.3,7.9C84.7,49.1,84.6,49.1,84.5,49.1z"/>
	<path class="st0" d="M131.1,49.1c-4.3-0.2-7.9-3.8-7.9-8.1c0-2.1,0.8-4.2,2.3-5.7c1.5-1.6,3.6-2.4,5.9-2.4h0.1c2.2,0,4.3,1,5.9,2.6
		c1.5,1.6,2.3,3.6,2.2,5.7c-0.1,4.3-3.9,7.9-8.3,7.9C131.3,49.1,131.2,49.1,131.1,49.1z"/>
	<path class="st0" d="M56.6,70.2c-0.8-1.8-1.6-3.6-2.4-5.3c-1.3-2.9-2.6-5.7-3.9-8.5c-0.2-0.5-1-2.3-1.5-3c0,0-1.6-1-4.9-1.1l0,0
		h-0.1c-3.6,0-6.5,0-10.2,0c-2.9,0-4.4,1.3-4.4,1.3c-0.1,0.1-0.2,0.3-0.3,0.4c-0.2,0.3-0.4,0.5-0.5,0.7l0,0
		c-0.5,0.6-0.9,1.3-1.1,1.6c-1.3,2.8-2.6,5.7-3.9,8.5c-0.8,1.8-1.6,3.6-2.4,5.3L56.6,70.2L56.6,70.2z"/>
	<path class="st0" d="M102.6,70.2c-0.8-1.8-1.6-3.6-2.4-5.3c-1.3-2.9-2.6-5.7-3.9-8.5c-0.2-0.5-1-2.3-1.5-3c0,0-1.6-1-4.9-1.1l0,0
		h-0.1c-3.6,0-6.5,0-10.2,0c-2.9,0-4.4,1.3-4.4,1.3c-0.1,0.1-0.2,0.3-0.3,0.4c-0.2,0.3-0.4,0.5-0.5,0.7l0,0
		c-0.5,0.6-0.9,1.3-1.1,1.6c-1.3,2.8-2.6,5.7-3.9,8.5c-0.8,1.8-1.6,3.6-2.4,5.3L102.6,70.2L102.6,70.2z"/>
	<path class="st0" d="M148.1,70.2c-0.8-1.8-1.6-3.6-2.4-5.3c-1.3-2.9-2.6-5.7-3.9-8.5c-0.2-0.5-1-2.3-1.5-3c0,0-1.6-1-4.9-1.1l0,0
		h-0.1c-3.6,0-6.5,0-10.2,0c-2.9,0-4.4,1.3-4.4,1.3c-0.1,0.1-0.2,0.3-0.3,0.4c-0.2,0.3-0.4,0.5-0.5,0.7l0,0
		c-0.5,0.6-0.9,1.3-1.1,1.6c-1.3,2.8-2.6,5.7-3.9,8.5c-0.8,1.8-1.6,3.6-2.4,5.3L148.1,70.2L148.1,70.2z"/>
	<rect x="22" y="85" class="st0" width="38" height="50.3"/>
	<rect x="66" y="85" class="st0" width="37.6" height="50.3"/>
	<rect x="109.6" y="85" class="st0" width="37.6" height="50.3"/>
	<rect x="13.5" y="74.1" class="st0" width="142.6" height="6.8"/>
</g>
</svg>
