<?xml version="1.0" encoding="utf-8"?>
<!-- Generator: Adobe Illustrator 22.0.0, SVG Export Plug-In . SVG Version: 6.00 Build 0)  -->
<svg version="1.1" id="Capa_1" xmlns="http://www.w3.org/2000/svg" xmlns:xlink="http://www.w3.org/1999/xlink" x="0px" y="0px"
	 viewBox="0 0 168.7 168.2" style="enable-background:new 0 0 168.7 168.2;" xml:space="preserve">
<style type="text/css">
	.st0{fill:#A2903D;stroke:#232245;stroke-miterlimit:10;}
</style>
<g>
	<path class="st0" d="M96.8,84.6c10.3,3.7,20.7,7.4,31.1,11c2.5,0.9,4.6,1.9,2.8,4.9c-1.6,2.6-0.1,8.3-6.2,6.9
		c-2.3-0.5-4.6-0.9-6.8-1.4c-13.6-3.4-25.7-0.6-36.3,8.5c-5.7,4.9-11.7,9.3-19.6,10.3c-11.1,1.6-21.4-3.3-27-13.1
		c-5.3-9.3-4.4-21,2.3-29.5c6.8-8.6,18.2-12,28.7-8.7c0.3,0.1,0.6,0.2,0.9,0.3C76.7,77.5,86.8,81,96.8,84.6z M46.1,94.5
		c-2.3,6.3,1.1,13.6,7.5,15.8c6.4,2.2,13.6-1.2,15.8-7.6c2.1-6.1-1.3-13.2-7.4-15.5C55.6,84.8,48.5,88.1,46.1,94.5z"/>
	<path class="st0" d="M50.1,61c12.9-8,25.8-7.1,39.1-2c17.3,6.5,34.8,12.5,52.2,18.7c1.7,0.6,3.4,1.2,6.1,2.2
		c-4.7,4.7-8.5,9-12.8,12.8c-0.9,0.8-3.4,0.1-5-0.5c-18.4-6.5-36.7-13-55.1-19.6c-16.5-5.9-24.5-4.9-39.7,5.3
		c1.4-2.4,2.4-4.1,3.4-5.9c-7.8-3.6-10.6-7.3-9.6-12.8c0.9-5.1,5-8.7,10-8.8C44.5,50.2,47.8,53.2,50.1,61z M41.6,54.4
		c-3.5-1.3-7.7,0.5-9,4c-1.3,3.4,0.7,7.7,4.1,9c3.4,1.4,7.5-0.5,8.9-4.1C46.9,59.7,45.2,55.7,41.6,54.4z M95.5,64.6
		c-4.5-1.7-7.9,0.9-12.5,9C89.7,73.2,91.2,67.6,95.5,64.6z"/>
</g>
</svg>
