<?xml version="1.0" encoding="utf-8"?>
<!-- Generator: Adobe Illustrator 22.0.0, SVG Export Plug-In . SVG Version: 6.00 Build 0)  -->
<svg version="1.1" id="Capa_1" xmlns="http://www.w3.org/2000/svg" xmlns:xlink="http://www.w3.org/1999/xlink" x="0px" y="0px"
	 viewBox="0 0 792 612" style="enable-background:new 0 0 792 612;" xml:space="preserve">
<style type="text/css">
	.st0{fill:#A2903D;}
	.st1{fill:#FFFFFF;}
</style>
<path class="st0" d="M391.3,278.8h-23.2c-2.4,0-4.3,1.9-4.3,4.3s1.9,4.3,4.3,4.3h23.2c2.4,0,4.3-1.9,4.3-4.3
	S393.7,278.8,391.3,278.8L391.3,278.8z M420.1,206.3c-3.4-3-7.4-4.2-7.4-4.2l-9.8-0.6c0,0-2.2-0.7-4.4-1.4c-2.2-0.7-4.4-1.4-4.5-1.4
	c-0.1-0.1-0.4-0.3-0.8-0.5c-0.4-0.2-0.8-0.4-0.9-0.5c-1.2-0.7-3.7-1.3-6.3-1.8c-2.6-0.5-5.2-0.7-6.8-0.7c-1.7-0.1-4.3,0.3-6.7,0.7
	c-2.4,0.5-4.7,1.1-5.9,1.7c-0.2,0.1-0.5,0.3-0.9,0.5c-0.4,0.2-0.7,0.4-0.8,0.5c-0.1,0-2.3,0.7-4.5,1.4c-2.2,0.7-4.4,1.4-4.4,1.4
	l-9.8,0.6c0,0-4,1.2-7.4,4.2c-3.4,3-6.2,7.7-4,14.7c0,0.1,1.2,2.5,2.3,4.8c1.2,2.3,2.3,4.7,2.3,4.7l2.3,7.9l1.1,4.3l1.1,4.3l2.9,9.5
	l1.8,7.3l1.8,7.3l0.3,0.9l0.4,0.4c0,0,0.1,0.1,0.1,0.1l0.1,0.1h17.7c0,0,0,0,0.1,0c2-0.1,3.6-1.7,3.6-3.7c0-2.1-1.7-3.8-3.8-3.8
	l-9.1,0l2.6-25.8c0,0-1.9-0.5-4-2.1c-2.1-1.6-4.3-4.4-5.1-8.9c-0.1,0,16.2,0,16.2,0l-2.4,29.3l24.1,0l-2.4-29.3c0,0,16.3,0,16.2,0
	c-0.8,4.5-3,7.3-5.1,8.9c-2.1,1.6-4,2.1-4,2.1l2.6,25.8l-9,0c-2.1,0-3.8,1.7-3.7,3.8c0,1.9,1.5,3.5,3.4,3.7c0.1,0.1,0.2,0.1,0.2,0.1
	l18,0l0.7-0.4l0.4-1.5l3.4-14.4l2.9-9.5l2.1-8.7l2.3-7.9c0,0,1.2-2.3,2.3-4.7c1.2-2.3,2.3-4.7,2.3-4.8
	C426.3,214,423.5,209.2,420.1,206.3L420.1,206.3z"/>
<g>
	<path class="st1" d="M265.5,357.9c0,8.2-2,14.6-6.1,19.4s-9.7,7.1-16.9,7.1c-7.1,0-12.8-2.4-16.8-7.1s-6.1-11.2-6.1-19.4
		c0-8.2,2.1-14.6,6.2-19.3c4.1-4.7,9.7-7,16.9-7c7.2,0,12.8,2.4,16.8,7.1C263.4,343.2,265.5,349.7,265.5,357.9z M223.4,357.9
		c0,7.4,1.6,13,4.9,17.1c3.3,4,8,6,14.1,6c6.2,0,10.9-2,14.2-6c3.3-4,4.9-9.7,4.9-17.1c0-7.4-1.6-13.1-4.9-17
		c-3.3-3.9-8-5.9-14.1-5.9c-6.1,0-10.8,2-14.1,6C225.1,344.9,223.4,350.5,223.4,357.9z"/>
	<path class="st1" d="M278.7,383.6v-36h2.5v33.6h17.2v2.4H278.7z"/>
	<path class="st1" d="M307.1,383.6v-36h2.5v36H307.1z"/>
	<path class="st1" d="M338.1,383.6l-13.4-33.2h-0.2c0.1,2,0.2,4.1,0.2,6.3v27h-2.4v-36h3.9l12.7,31.6h0.1l12.7-31.6h3.8v36h-2.5
		v-27.3c0-1.9,0.1-3.9,0.3-5.9h-0.2l-13.5,33.2H338.1z"/>
	<path class="st1" d="M390,358c0,3.5-1.2,6.1-3.5,8c-2.4,1.9-5.7,2.8-10,2.8h-5.6v14.9h-2.5v-36h8.8C385.7,347.6,390,351.1,390,358z
		 M370.8,366.6h4.9c4.1,0,7-0.7,8.8-2c1.8-1.3,2.7-3.5,2.7-6.5c0-2.8-0.9-4.8-2.6-6.2c-1.7-1.3-4.3-2-7.9-2h-6V366.6z"/>
	<path class="st1" d="M400.3,383.6v-36h2.5v36H400.3z"/>
	<path class="st1" d="M432.8,370.9h-14.6l-5,12.7h-2.8l14.5-36.1h1.6l14.2,36.1h-2.8L432.8,370.9z M419.1,368.7H432l-4.9-13
		c-0.4-1-0.9-2.4-1.5-4.2c-0.4,1.6-0.9,3-1.5,4.3L419.1,368.7z"/>
	<path class="st1" d="M475.6,365.3c0,6-1.6,10.6-4.7,13.7c-3.2,3.1-7.8,4.6-14,4.6h-8.6v-36h9.7c5.7,0,10.1,1.5,13.1,4.5
		C474.1,355.1,475.6,359.5,475.6,365.3z M472.9,365.4c0-5.2-1.3-9-3.9-11.6c-2.6-2.6-6.5-3.9-11.5-3.9h-6.6v31.5h6
		C467.5,381.4,472.9,376.1,472.9,365.4z"/>
	<path class="st1" d="M503.7,370.9h-14.6l-5,12.7h-2.8l14.5-36.1h1.6l14.2,36.1h-2.8L503.7,370.9z M490,368.7h12.9l-4.9-13
		c-0.4-1-0.9-2.4-1.5-4.2c-0.4,1.6-0.9,3-1.5,4.3L490,368.7z"/>
	<path class="st1" d="M539,374.3c0,3-1.1,5.4-3.3,7.1c-2.2,1.8-5.1,2.6-8.8,2.6c-4.4,0-7.8-0.5-10.1-1.5v-2.5
		c2.6,1.1,5.9,1.6,9.9,1.6c3,0,5.3-0.7,7-2c1.7-1.4,2.6-3.1,2.6-5.3c0-1.4-0.3-2.5-0.9-3.4s-1.5-1.7-2.8-2.4s-3.2-1.5-5.7-2.4
		c-3.7-1.3-6.2-2.6-7.6-4.1c-1.4-1.5-2.1-3.4-2.1-5.9c0-2.7,1.1-4.9,3.2-6.6s4.8-2.5,8.1-2.5c3.4,0,6.6,0.6,9.5,1.9l-0.9,2.2
		c-3-1.2-5.8-1.9-8.6-1.9c-2.7,0-4.8,0.6-6.3,1.8c-1.6,1.2-2.4,2.9-2.4,5c0,1.3,0.2,2.4,0.7,3.3c0.5,0.9,1.3,1.6,2.4,2.3
		c1.1,0.7,3,1.5,5.7,2.4c2.8,1,4.9,1.9,6.3,2.8c1.4,0.9,2.4,1.9,3.1,3.1C538.7,371.3,539,372.7,539,374.3z"/>
</g>
<g>
	<path class="st1" d="M214.2,394.2v33.3c0,3.8-0.8,7.1-2.5,10c-1.7,2.9-4.2,5.1-7.4,6.6c-3.2,1.5-7,2.3-11.4,2.3
		c-6.6,0-11.7-1.7-15.4-5.1c-3.7-3.4-5.5-8-5.5-13.9v-33.1h10.9v31.5c0,4,0.8,6.9,2.4,8.7c1.6,1.9,4.2,2.8,7.9,2.8
		c3.6,0,6.1-0.9,7.8-2.8s2.4-4.8,2.4-8.8v-31.4H214.2z"/>
	<path class="st1" d="M256.8,445.6h-9.7l-15.7-27.2h-0.2c0.3,4.8,0.5,8.2,0.5,10.3v16.9h-6.8v-36h9.6l15.6,26.9h0.2
		c-0.2-4.7-0.4-8-0.4-9.9v-17h6.9V445.6z"/>
	<path class="st1" d="M265.8,445.6v-36h7.6v36H265.8z"/>
	<path class="st1" d="M303,409.6h7.7l-12.2,36h-8.3l-12.2-36h7.7l6.8,21.4c0.4,1.3,0.8,2.7,1.2,4.4c0.4,1.7,0.7,2.9,0.8,3.5
		c0.2-1.5,0.8-4.2,1.8-7.9L303,409.6z"/>
	<path class="st1" d="M336,445.6h-20.7v-36H336v6.3h-13.1v7.9h12.2v6.3h-12.2v9.3H336V445.6z"/>
	<path class="st1" d="M351.1,431.8v13.8h-7.6v-36H354c4.9,0,8.5,0.9,10.9,2.7s3.5,4.5,3.5,8.1c0,2.1-0.6,4-1.7,5.6
		c-1.2,1.6-2.8,2.9-4.9,3.9c5.4,8.1,8.9,13.3,10.6,15.7h-8.5l-8.6-13.8H351.1z M351.1,425.6h2.5c2.4,0,4.2-0.4,5.3-1.2
		s1.7-2.1,1.7-3.8c0-1.7-0.6-2.9-1.8-3.6c-1.2-0.7-3-1.1-5.5-1.1h-2.3V425.6z"/>
	<path class="st1" d="M398,435.6c0,3.2-1.2,5.8-3.5,7.7c-2.3,1.9-5.6,2.8-9.8,2.8c-3.8,0-7.2-0.7-10.2-2.2v-7.1
		c2.4,1.1,4.5,1.8,6.2,2.3c1.7,0.4,3.2,0.7,4.6,0.7c1.7,0,3-0.3,3.9-1s1.3-1.6,1.3-2.9c0-0.7-0.2-1.3-0.6-1.9
		c-0.4-0.5-1-1.1-1.7-1.6s-2.3-1.3-4.7-2.4c-2.2-1-3.8-2-4.9-3c-1.1-1-2-2.1-2.6-3.3s-1-2.7-1-4.4c0-3.2,1.1-5.7,3.2-7.5
		s5.1-2.7,8.9-2.7c1.9,0,3.7,0.2,5.4,0.7s3.5,1.1,5.3,1.9l-2.5,5.9c-1.9-0.8-3.5-1.3-4.8-1.6s-2.5-0.5-3.7-0.5c-1.4,0-2.6,0.3-3.3,1
		c-0.8,0.7-1.2,1.6-1.2,2.6c0,0.7,0.2,1.3,0.5,1.8c0.3,0.5,0.8,1,1.5,1.5c0.7,0.5,2.3,1.3,4.8,2.5c3.4,1.6,5.7,3.2,6.9,4.8
		C397.4,431.3,398,433.3,398,435.6z"/>
	<path class="st1" d="M404.5,445.6v-36h7.6v36H404.5z"/>
	<path class="st1" d="M435.1,445.6h-7.6V416h-9.8v-6.3h27.2v6.3h-9.8V445.6z"/>
	<path class="st1" d="M472.4,445.6l-2.6-8.6h-13.1l-2.6,8.6h-8.2l12.7-36.1h9.3l12.7,36.1H472.4z M468,430.7
		c-2.4-7.8-3.8-12.1-4.1-13.2s-0.5-1.8-0.7-2.4c-0.5,2.1-2.1,7.3-4.7,15.6H468z"/>
	<path class="st1" d="M492.8,431.8v13.8h-7.6v-36h10.5c4.9,0,8.5,0.9,10.9,2.7s3.5,4.5,3.5,8.1c0,2.1-0.6,4-1.7,5.6
		c-1.2,1.6-2.8,2.9-4.9,3.9c5.4,8.1,8.9,13.3,10.6,15.7h-8.5l-8.6-13.8H492.8z M492.8,425.6h2.5c2.4,0,4.2-0.4,5.3-1.2
		s1.7-2.1,1.7-3.8c0-1.7-0.6-2.9-1.8-3.6c-1.2-0.7-3-1.1-5.5-1.1h-2.3V425.6z"/>
	<path class="st1" d="M518.4,445.6v-36h7.6v36H518.4z"/>
	<path class="st1" d="M557.1,445.6l-2.6-8.6h-13.1l-2.6,8.6h-8.2l12.7-36.1h9.3l12.7,36.1H557.1z M552.7,430.7
		c-2.4-7.8-3.8-12.1-4.1-13.2s-0.5-1.8-0.7-2.4c-0.5,2.1-2.1,7.3-4.7,15.6H552.7z"/>
	<path class="st1" d="M591.1,435.6c0,3.2-1.2,5.8-3.5,7.7c-2.3,1.9-5.6,2.8-9.8,2.8c-3.8,0-7.2-0.7-10.2-2.2v-7.1
		c2.4,1.1,4.5,1.8,6.2,2.3c1.7,0.4,3.2,0.7,4.6,0.7c1.7,0,3-0.3,3.9-1s1.3-1.6,1.3-2.9c0-0.7-0.2-1.3-0.6-1.9
		c-0.4-0.5-1-1.1-1.7-1.6s-2.3-1.3-4.7-2.4c-2.2-1-3.8-2-4.9-3c-1.1-1-2-2.1-2.6-3.3s-1-2.7-1-4.4c0-3.2,1.1-5.7,3.2-7.5
		s5.1-2.7,8.9-2.7c1.9,0,3.7,0.2,5.4,0.7s3.5,1.1,5.3,1.9l-2.5,5.9c-1.9-0.8-3.5-1.3-4.8-1.6s-2.5-0.5-3.7-0.5c-1.4,0-2.6,0.3-3.3,1
		c-0.8,0.7-1.2,1.6-1.2,2.6c0,0.7,0.2,1.3,0.5,1.8c0.3,0.5,0.8,1,1.5,1.5c0.7,0.5,2.3,1.3,4.8,2.5c3.4,1.6,5.7,3.2,6.9,4.8
		C590.5,431.3,591.1,433.3,591.1,435.6z"/>
</g>
<g transform="translate(0.000000,964.000000) scale(0.100000,-0.100000)">
	<path class="st1" d="M3392.5,8202.6c0-3.8-1.9-13.1-4.3-20.8c-5.2-16.3-18.3-35.3-37.9-54.7c-15.1-14.7-33-35.3-40.5-45.8
		c-7.8-11.4-11.2-25.3-10.7-43.9c1.2-42,1.4-40.7-5.5-54.7c-8.8-18.3-12.1-22.1-32.5-38.2c-42.9-33.7-95.5-84.8-125.4-121.8
		c-20.1-24.7-18.9-23.9-17.5-14.7c1.7,11.4,8,23.4,19.9,38.1c20.8,25.4,29.4,51.7,26.1,79.2c-4.2,33.7-14.9,70.8-37.2,128.5
		c-6.9,17.8-10.9,24.2-6.7,10.9c1.4-4.7,3.1-15.1,3.6-23.2c0.9-12.5,0.2-17.3-3.6-32c-2.6-9.5-7.6-25.1-11.2-34.6
		c-9-23-17-47.9-18.9-59.7c-2.9-16.1,2.1-37.5,13-55.2c10.9-18.2,13.3-34.4,8.3-58.1c-2.2-10.6-4.8-15.2-21.5-39.8
		c-31.3-46.2-57.8-94.8-78-144.1c-9-21.5-8.5-21.3-16.6-5.5l-5,9.5v37.2c0,36.3-0.2,37.5-4.8,51c-2.8,7.6-6.4,16.3-8.3,19.4
		c-4.3,6.9-25.1,26.3-38.8,36c-11.2,8.1-87.9,47.6-92.2,47.6c-1.6,0,1.6-2.9,6.6-6.4c20.4-14.5,29.1-31.8,40.7-81.8
		c3.1-13.8,8.6-33.9,12.1-44.8c5.7-17.3,7.3-20.6,14.5-27.9c8-8,24.6-17.3,31-17.3c9,0,20.9-5.5,27.7-12.8
		c8.1-9,10.9-13.7,15.7-28.4l3.6-11.1l-5.4-15.7c-27.2-82.3-39.6-158.3-40.3-243.2c0-20.9-0.7-37.5-1.2-37.2
		c-3.3,1.9-9.2,19.2-13.8,41c-2.9,13.5-7.3,30.1-9.7,36.7c-5.4,14.7-18.2,37-26.3,45.3c-6.9,7.1-32.9,24.6-46.9,31.7
		c-17.6,8.6-103.8,37.7-103.8,34.8c0-0.5,4.7-3.1,10.2-5.7c22.1-10.4,38.2-31.7,63-83.4c17.3-36,32.2-61.1,40.3-68.3
		c11.9-10.6,25.1-15.9,42-17.5c18.2-1.4,26.1-5.2,37.5-17.8l8.6-9.3l2.1-26.5c7.3-87.5,26.6-167.8,60.2-248.6
		c5.4-13.1,11.2-26.8,13.1-30.3c1.7-3.6,2.4-6.6,1.6-6.6c-1,0-6.7,4.8-12.8,10.9c-8,7.6-15.2,17.6-25.4,34.6
		c-7.8,13.1-18.7,29.8-24.4,36.8c-11.8,14.7-35.8,34.8-50.9,42.2c-10,5-51.6,17-71.4,20.8c-15.7,2.9-104.5,8.6-131,8.5l-24.2-0.2
		l18.2-3.8c10-2.1,24-6.2,31.1-9.3c17-7.3,44.5-28.9,77.5-61.1c43.1-42,68.9-62.3,86-67.8c22.5-7.1,37.9-8,61.2-3.6
		c18.3,3.5,29.6,1.6,49.5-8c20.1-9.7,25.1-14.7,36.5-35.8c36-67.8,80.4-128.2,136.1-185.1l22.3-22.8l-10.7,2.6
		c-22.8,5.4-33,11.2-60.4,35.1c-35.5,31-51.6,41-82,51.4c-15.9,5.4-22.5,6.6-36.7,7.3c-17.8,0.7-57.6-3.8-83.9-9.3
		c-29.2-6.4-179.9-61.9-179.9-66.4c0-0.7,4.5,0,10,1.7c15.9,5,37.4,7.4,54.7,6.4c21.3-1.4,62.6-15.1,102.9-34.1
		c30.1-14.2,77.2-32.5,95.5-37.2c18.9-5,46.7-2.4,69.4,6.1c5.4,1.9,17.8,8.8,27.9,15.4c10.2,6.6,22,12.8,26.3,13.8
		c21.1,5.4,44.3,3.8,70.2-4.3c11.8-3.6,15.7-6.2,35.8-22.8c47.6-39.4,97.4-72.3,148.9-98.8c24.7-12.6,73-34.8,75.6-34.8
		c0.3,0,0.7,4.5,0.7,10.2c0,9.9-0.2,10.2-5.5,12.5c-46,18.3-106.9,51.7-153.1,83.9c-12.1,8.5-44.5,32.9-50.5,38.1
		c-2.1,1.9-5.2,25.1-5.4,39.6c0,27.2,3.5,36.8,21.5,60.4c18.7,24.4,28.2,53.5,26.5,81.1c-1,19.9-14.2,63.5-33.2,110.7
		c-12.5,31.1-23.2,66.4-27.2,89.6c-3.3,19.4,1.7,52.9,11.6,76.3c0.7,1.7,0.5,3.1-0.3,3.1c-4.7,0-71.1-152.6-78-179
		c-6.2-23.5-14.2-69.9-14.2-82.2c0-14.4,7.8-46.4,15.2-62.8c8.1-17.8,15.9-29.8,36.8-56.9c10.6-13.5,20.6-27.3,22.3-30.8
		c4.2-8.3,10.7-30.3,10-33.7c-0.7-3.8-37.9,30.6-64.9,60c-46.4,50.7-86.7,106.7-114.2,158.8l-8.6,16.4l1.4,15.4
		c2.2,24.2,9.7,43.8,21.8,58.3c2.6,2.9,10.2,9,17,13.1c14.9,9.5,23.2,17.3,32.9,30.8c18.3,25.8,19.9,33.6,20.8,109.9
		c0.9,60.7,2.9,90.8,7.3,103.8c4.8,14.5,14.2,32,22.8,42.9c4.8,5.9,8.1,10.7,7.4,10.7c-3.5,0-90.8-91.5-108.1-113.1
		c-9.2-11.9-36.7-58.3-40.8-69.2c-3.5-9.3-7.1-34.1-7.1-48.8c0-14.2,4.5-36.3,13-63.5c6.9-22.7,7.8-26.8,7.6-41.3
		c0-8.8-1-19.9-2.2-24.7l-2.1-8.6l-4,8.6c-23.9,51.6-39.1,93.6-52.8,146.2c-13.5,52.6-23.5,123.7-23.5,169.4
		c0,17.1,0.3,18.5,5.2,26.1c6.7,10.4,21.5,24.6,30.8,29.2c3.8,1.9,14.9,4.8,24.4,6.2c30.8,4.7,52.8,16.6,65.2,35.8
		c9,13.5,24.4,44.1,35.3,70.1c19.2,45.5,37.2,68,64.9,81.8c7.6,3.8,12.6,6.9,11.1,6.9c-6.1,0-91.3-31-123.5-45
		c-11.1-4.7-49.6-29.1-59-37c-4-3.5-10.9-12.1-15.6-19.4c-11.8-19-17.3-36.7-20.6-65.6c-1.4-13.3-3.1-26.5-3.6-29.4
		c-1.4-6.6-7.8-19.4-12.6-25.1l-3.6-4.3l0.9,9.5c0.3,5.2,1.2,20.6,1.7,33.9c2.6,67.5,19,151.4,43.1,219.4
		c4.3,11.8,8.8,23.7,10.4,26.5c4.2,8.3,24.2,25.8,36,31.5c12.3,6.1,18.5,6.6,45.5,4.5c18.2-1.4,34.4,1.2,46.7,7.4
		c8.1,4,34.3,30.3,53.6,54c9.9,11.9,24.4,28,32.5,36c16.4,15.9,29.4,23,50.3,27.5c6.7,1.4,12.6,2.9,13.1,3.5
		c3.1,3.3-119.4-7.8-136-12.5c-18.5-5.2-42.9-13.3-49.5-16.6c-9.7-5-28-23-35.8-35.3c-3.8-6.1-10.7-20.2-15.1-31.5
		c-4.5-11.2-10.4-23.4-13-27c-4.7-6.6-18.9-19.9-18.9-17.6c0,0.5,4.2,10.4,9.3,21.6c17.1,38.1,48.8,92.2,75.1,128.9
		c13.5,18.5,41.9,54.1,46.4,58.1c5.5,4.8,19.9,8.6,36.2,9.7c14.4,0.9,16.8,0.5,31.7-4.5c18.7-6.4,39.6-9.2,54.8-6.9
		c13.3,1.9,37.5,11.9,70.9,29.2c14.4,7.4,33.7,16.4,43.2,20.1c16.8,6.4,17.8,6.6,41,6.6c13,0.2,23.4,0.5,23,0.9
		c-1.2,1-34.1,7.1-74.2,13.5c-37.2,6.1-42.6,6.6-77.2,6.4c-36.3,0-37.5,0-49-4.7c-21.8-8.6-32.7-15.6-50.7-32.5
		c-17.1-16.4-20.9-19.2-34.1-24.7l-6.7-2.8l8.6,10c29.8,34.4,90.8,86.8,138.7,119.5c23.7,16.1,30.8,18.3,55.4,18.2
		c19.9-0.2,27.3-2.2,42.2-11.2c20.4-12.6,47.6-19,66.4-15.6c16.4,2.9,49.1,11.4,64.2,16.4c7.1,2.4,22.8,6.6,35.3,9
		c18.3,3.6,24.9,4.3,35.5,3.3c11.9-1,25.3-3.8,34.1-7.1c2.4-0.9,2.9-0.7,1.7,0.5c-2.4,2.4-45,18.5-85.6,32.3
		c-36.7,12.3-73.3,20.2-94.3,20.4c-14.9,0-34.3-4-46.9-9.7c-5.2-2.4-17.8-9.7-28-16.4c-10.2-6.6-20.1-12.5-22-13
		c-7.8-2.2-19.7-4-18.9-2.6c2.6,4.3,65.7,36.8,89.8,46.2l15.6,6.1l27.2-0.3c28.5-0.3,34.1,0.5,54,8c10.7,4,14.4,6.7,33.6,25.4
		c21.6,21.1,41.3,46.2,72.7,93.2c12.3,18.2,15.2,25.6,4.3,10.9c-2.9-4.2-10.7-11.4-17.1-16.3c-9.3-6.9-15.7-9.9-33.4-15.6
		c-11.9-4-29.2-8.8-38.2-10.9c-21.3-5-43.6-12.5-52.8-17.8c-8.6-5.2-19.2-17.3-32.5-37.4c-14.4-22-26.5-30.8-74.9-55
		c-37.4-18.7-67.1-35.8-95.3-55c-11.8-7.8-21.3-13.8-21.3-13.3s2.6,4.3,5.9,8.3c4.2,5,11.2,10,23.5,16.4
		c22.1,11.6,30.6,18.2,40.7,31.1c10.4,13.5,13.5,20.9,19.7,46.5c5.4,21.8,8,45.2,9.7,86.7c0.5,12.8,1.4,29.4,1.9,36.8
		c0.7,8.8,0.3,13.3-0.9,13.3C3393.3,8209.4,3392.5,8206.3,3392.5,8202.6z"/>
	<path class="st1" d="M4173.7,8179.1c3.3-91,10.7-131.3,28.4-155.2c10.7-14.7,22.3-23.7,44.1-34.6c11.6-5.9,19.7-11.2,24.7-16.6
		c4-4.3,6.9-8.1,6.6-8.5c-0.3-0.3-7.6,4-15.9,9.5c-27,18-62.8,38.2-101,56.9c-55.9,27.3-67.3,35.5-82.2,58.5
		c-14,21.6-23.5,31.1-37.9,37.9c-12.3,5.7-41,14.5-60.7,18.3c-14.5,2.9-41.7,11.8-51.7,16.8c-4.8,2.4-14.5,10-21.6,17.1
		c-7.3,7.1-13.3,12.8-13.7,12.8c-1.2,0,22.7-33.6,44.8-63.3c26.8-36.2,52.6-61.6,71.6-70.8c19.9-9.7,32.3-11.8,61.1-10.6
		c23.4,1,25.4,0.9,37.7-3.3c17.3-5.7,49.3-20.6,75.4-34.8c24.9-13.5,27.5-15.4,17.8-13.8c-14.5,2.6-19.7,4.8-37,15.9
		c-23.5,15.1-33.2,19.4-53.5,23.5c-12.6,2.6-19.9,3.1-29.6,2.2c-23.9-2.1-57.3-9.3-87.2-19.2c-42.9-14-92.9-32.2-92.9-33.9
		c0-0.7,2.1-0.5,4.8,0.5c8.3,3.3,29.8,6.7,41,6.7c14,0,40.8-5.4,69.2-13.8c70.6-20.9,88.1-20.9,130.1,0.2
		c20.4,10.4,21.5,10.7,37.2,11.6c9.2,0.3,21.8-0.2,28.9-1.4c11.8-1.9,14.7-3.5,38.1-19c29.1-19.4,59-42.2,84.4-64.4
		c25.3-22,65.2-60.9,63.1-61.6c-4.8-1.6-22,9-36.5,22.7c-19.7,18.5-31.7,26.3-51.2,34.1l-15.6,6.1h-41.5c-38.2,0-44.3-0.5-77-5.5
		c-55.5-8.8-79.6-13.3-79.6-14.9c0-0.9,1.6-1,3.5-0.3c5.4,1.7,36.2,1.2,46-0.7c12.5-2.4,38.8-13.3,69-28.4
		c14.4-7.1,33.4-15.9,42.4-19.5c16.3-6.7,16.8-6.7,38.9-6.6c20.6,0,24,0.5,39.8,5.7c19.9,6.4,38.1,7.4,55,2.9
		c14.7-4,16.8-5.5,31.5-22.7c26.1-30.3,54.1-69.5,77.2-107.6c13.7-22.5,45.7-84.9,44.3-86.3c-0.5-0.5-5.9,4-11.9,10
		c-9.3,9.2-12.1,13.3-17,25.6c-13.8,35.1-23.4,50.2-42,65.7c-21.3,18-58.8,28.9-119,34.6c-42.7,4-95.7,6.2-79.7,3.5
		c12.6-2.4,29.2-8.1,38.4-13.3c10.4-6.1,33-28.2,52.8-51.6c20.9-24.9,46.4-49.3,56.4-54.1c4.5-2.2,14.5-5.2,22.5-6.7
		c12.6-2.2,17.1-2.4,33.6-0.5c16.8,1.9,20.2,1.9,28.5-0.5c12.1-3.5,23.7-10.9,36.5-23.2c8.8-8.5,10.9-11.8,17-27.2
		c19.2-49.6,35.1-111.1,42.6-163.8c4.3-30.6,7.8-71.4,7.8-91.5v-18.2l-3.5,4.3c-8.8,11.1-12.1,22-15.6,49.8
		c-1.7,14.9-4.5,31.5-6.2,36.7c-4.8,16.4-16.1,36.2-27.3,48.1c-5.5,5.9-41.2,28.9-58.1,37.5c-10.4,5.2-81.8,32.2-105.5,39.6
		c-8.1,2.6-18,5.9-22,7.1c-11.8,3.8-8.6,0.5,6.4-6.6c27.3-13,45.8-36.5,68-86.8c15.1-34.1,32-64.2,41.5-73.9
		c5.2-5.2,13.3-10.7,22.5-15.1c13.8-6.6,19.9-8.3,45.7-12.3c19.2-3.1,37-16.1,49.8-36.2c3.8-6.1,4.3-9,4.3-21.3
		c0-28.7-6.7-87.7-14-124.9c-8.8-45-24.7-98.4-41-138.6c-10.7-26.1-26.8-61.4-28.2-61.4c-2.1,0-5,19.7-5,33
		c0,11.1,1.4,17.6,7.8,38.1c10.2,32.3,13,46.5,13,65.9c-0.2,37.4-3.3,46.7-28.7,87.5c-11.1,18-20.9,31-35.3,46.7
		c-25.9,28.7-95,98.1-96.2,96.9c-0.5-0.7,2.9-5.9,7.8-11.8c9.3-11.8,19-28.9,23.4-41.7c4.8-15.1,8.5-56.9,7.1-86.3
		c-1.2-30.4,1.4-80.3,5.4-96c5.5-22.1,22.7-44.1,47.4-60.7c9.7-6.4,19.7-14.4,22.5-17.6c12.5-15.1,20.4-38.6,20.9-61.8
		c0.3-12.8,0.3-12.8-10.6-31.5c-35.3-60.7-76.3-114.3-124-162.6c-25.1-25.3-57.6-54.8-58.8-53.5c-1.4,1.2,6.2,26.6,10.2,34.4
		c1.9,4,13,19.2,24.6,33.6c21.6,27.3,34.8,47.9,41,64.5c6.9,18.2,11.9,41.5,11.9,55.2c0,15.9-11.6,74.9-18.3,93.6
		c-7.6,21.3-46,107.9-60.7,137.5c-14,27.9-21.1,37.5-13.1,18.2c10.9-27.2,12.1-57.4,3.8-90.3c-6.6-26.6-9.9-36-23.5-68.7
		c-18.7-44.6-35.1-98.4-35.1-115c0-12.1,6.1-35.5,13.1-50.9c3.1-7.1,10.6-18.7,16.4-25.9c14-17.3,18.7-27.9,20.9-46.9
		c1.7-12.6,1.6-18.2-0.7-32c-1.7-10.9-4-18-5.9-20.4c-8.1-8.8-61.9-46.2-95.8-66.3c-30.4-18.2-90.6-47.4-116.3-56.7
		c-2.6-0.9-3.1-3.1-3.1-11.6v-10.4l9.2,3.6c79.7,31.3,159.5,78.2,228.5,134.4c14.2,11.4,19.5,14.7,30.3,18.2
		c19.9,6.6,35.8,8.8,54,7.6c20.2-1.2,28.2-4,48.4-17c18.5-11.8,29.4-16.3,50.9-20.8c18.5-3.8,32.7-4.2,46.7-0.9
		c17.8,4.3,67.8,23,101.2,38.2c30.4,13.7,61.8,25.1,86.5,31.3c14.4,3.6,52.8,2.6,68.3-1.9c28.7-8.3,23.4-4.3-13.8,10.4
		c-43.9,17.5-137.2,48.8-156.2,52.6c-27.7,5.5-76.1,10.9-88.1,9.9c-13-1.4-36.2-8-53.6-15.2c-17.8-7.3-35.5-19.2-63.7-42.9
		c-27.3-22.7-34.9-27.7-51-32.7c-25.9-8-25.9-8.3,0.2,17.5c52.8,52.4,98.1,111.6,134.8,176.1c8,13.8,15.6,26.5,17.1,28.4
		c4.8,5.5,25.6,16.8,39.1,21.1c15.6,4.8,22.5,5.2,43.2,1.4c13.3-2.6,17.6-2.6,31.8-0.7c19.7,2.4,35.5,8,47.6,16.3
		c14,9.7,42.2,33.9,68,58.3c32.2,30.6,62.3,53.1,80.4,60.4c14.9,5.9,33.2,10.4,42.6,10.4c2.9,0,5.5,0.9,5.5,1.9
		c0,2.2-29.8,1.4-98.6-2.9c-49.5-3.1-64.4-5.2-99.5-14.7c-31.3-8.3-39.1-11.8-57.1-25.3c-20.2-15.1-35.8-33-54.5-63
		c-9-14.4-19.5-29.4-23.4-33.4c-6.2-6.4-18.2-15.9-18.2-14.5c0,0.3,4.3,10.2,9.7,22.1c38.4,86.2,61.2,173.7,68.5,263.6l2.1,26.1
		l8.6,9.2c13.1,14,18,16.3,36.7,17.8c20.1,1.4,36.2,8.3,47.9,20.2c9,9.2,27.2,40,43.6,73.7c21.6,44.1,38.6,65.4,61.1,75.9
		c6.1,2.8,10.6,5.4,10.2,5.7c-2.6,2.6-97.2-29.6-113.7-38.6c-19.9-11.1-41.9-27-47.1-34.3c-16.6-22.7-23.7-39.8-32.2-78.2
		c-4.7-20.8-11.1-38.6-13.8-38.6c-0.7,0-1.2,17-1.4,37.7c-0.2,41.9-2.2,67.1-8.6,109.3c-6.9,45-19.4,95.7-33.2,134.4l-5,14l3.1,10.2
		c4.2,13.1,13,27.5,20.9,33.9c4.7,3.8,10.6,6.1,21.1,8.3c20.6,4.3,37,15.4,44.3,29.4c4.5,8.6,15.1,43.8,19.2,63.7
		c3.6,17.6,11.9,43.6,17.5,54.7c4.3,8.5,19.7,23.7,27.2,26.6c2.9,1.4,5.4,2.9,5.4,3.8c0,4.8-89.3-40.3-106-53.6
		c-24.2-19.2-31.1-27.3-37.2-42.7c-5.5-14.4-10.2-42.4-8.3-49.8c0.5-2.2,1-12.3,1.2-22.5c0.2-18.2,0-19-6.2-31.5
		c-3.5-7.1-6.9-12.8-7.6-12.8s-3.8,6.4-7.1,14.4c-19.2,47.6-56.4,113-90.3,159.5c-12.8,17.3-15.9,27.3-16.1,50.2v17.5l9,15.4
		c9.7,16.8,16.1,36.7,16.1,49.5c0,9.7-9.5,41.7-20.1,67.3c-12.5,30.4-16.8,49.6-15.7,68.3c0.5,8.6,2.1,18.9,3.6,23
		c1.4,4,2.1,7.3,1.4,7.3c-0.7,0-2.6-3.3-4.2-7.3c-31.7-81.7-37.9-102.4-42.9-141.5c-1.7-13-1.6-16.3,1.7-28.5
		c4.8-18.9,11.6-32.2,25.1-48.4c6.2-7.6,13-16.6,14.7-20.1c3.6-6.9,7.8-22,6.6-23.2c-0.5-0.5-9.3,9-19.7,21.1
		c-35.5,41.3-78.4,81.8-127.8,120.4c-30.8,23.9-41.5,41.7-40.5,66.9c1.2,31.3,0.5,45.8-2.6,55c-4,11.8-18.3,29.8-44.6,56.2
		c-27.3,27.3-38.1,41.7-43.6,58.6c-2.4,7.3-4.5,15.4-4.7,18.2c0,2.6-0.9,6.4-1.7,8.3C4173.4,8203.8,4173,8195.5,4173.7,8179.1z"/>
</g>
</svg>
