<?xml version="1.0" encoding="utf-8"?>
<!-- Generator: Adobe Illustrator 22.0.0, SVG Export Plug-In . SVG Version: 6.00 Build 0)  -->
<svg version="1.1" id="Capa_1" xmlns="http://www.w3.org/2000/svg" xmlns:xlink="http://www.w3.org/1999/xlink" x="0px" y="0px"
	 viewBox="0 0 1535.5 197.3" style="enable-background:new 0 0 1535.5 197.3;" xml:space="preserve">
<style type="text/css">
	.st0{fill:#FFFFFF;}
	.st1{fill:#F9C139;}
</style>
<g>
	<path class="st0" d="M370.9,89.7c0,13.6-3.4,24.3-10.2,32.3s-16.2,11.9-28.1,11.9s-21.3-4-28.1-11.9s-10.2-18.7-10.2-32.4
		c0-13.6,3.4-24.4,10.3-32.2s16.2-11.7,28.1-11.7c12,0,21.3,3.9,28.1,11.8C367.5,65.3,370.9,76.1,370.9,89.7z M300.8,89.7
		c0,12.3,2.7,21.7,8.2,28.4s13.3,10,23.6,10c10.3,0,18.2-3.3,23.6-10s8.2-16.2,8.2-28.5s-2.7-21.8-8.2-28.4
		c-5.4-6.6-13.3-9.9-23.5-9.9s-18.1,3.3-23.6,10C303.6,68,300.8,77.5,300.8,89.7z"/>
	<path class="st0" d="M387,132.6v-60h4.2v56h28.6v3.9H387V132.6z"/>
	<path class="st0" d="M430.1,132.6v-60h4.2v60H430.1z"/>
	<path class="st0" d="M477.6,132.6l-22.4-55.4h-0.3c0.2,3.4,0.3,6.9,0.3,10.4v45h-4v-60h6.5l21.2,52.7h0.2l21.2-52.7h6.3v60h-4.2
		V87.2c0-3.2,0.2-6.5,0.5-9.8h-0.3l-22.4,55.3L477.6,132.6L477.6,132.6z"/>
	<path class="st0" d="M559.8,89.9c0,5.8-2,10.2-5.9,13.3s-9.5,4.6-16.7,4.6h-9.3v24.8h-4.2v-60h14.7
		C552.7,72.7,559.8,78.4,559.8,89.9z M527.9,104.3h8.2c6.8,0,11.6-1.1,14.6-3.3s4.5-5.8,4.5-10.8c0-4.6-1.4-8-4.3-10.3
		c-2.8-2.2-7.2-3.3-13.2-3.3h-9.9v27.7H527.9z"/>
	<path class="st0" d="M572.8,132.6v-60h4.2v60H572.8z"/>
	<path class="st0" d="M622.9,111.5h-24.4l-8.4,21.2h-4.6l24.1-60.2h2.7l23.6,60.2h-4.7L622.9,111.5z M600,107.7h21.5l-8.2-21.6
		c-0.7-1.7-1.5-4-2.5-7.1c-0.7,2.6-1.5,5-2.4,7.1L600,107.7z"/>
	<path class="st0" d="M689.9,102.1c0,10.1-2.6,17.7-7.9,22.8c-5.3,5.2-13,7.7-23.3,7.7h-14.4v-60h16.2c9.6,0,16.9,2.5,21.8,7.5
		S689.9,92.5,689.9,102.1z M685.4,102.3c0-8.6-2.2-15-6.5-19.4c-4.4-4.3-10.8-6.5-19.2-6.5h-11V129h9.9
		C676.4,129,685.4,120.1,685.4,102.3z"/>
	<path class="st0" d="M732.6,111.5h-24.4l-8.4,21.2h-4.6l24.1-60.2h2.7l23.6,60.2h-4.7L732.6,111.5z M709.8,107.7h21.5L723,86.1
		c-0.7-1.7-1.5-4-2.5-7.1c-0.7,2.6-1.5,5-2.4,7.1L709.8,107.7z"/>
	<path class="st0" d="M787.2,117.2c0,5-1.8,9-5.5,11.9c-3.7,2.9-8.6,4.4-14.7,4.4c-7.3,0-12.9-0.8-16.9-2.4v-4.2
		c4.3,1.8,9.8,2.7,16.5,2.7c4.9,0,8.8-1.1,11.7-3.4c2.9-2.3,4.3-5.2,4.3-8.9c0-2.3-0.5-4.1-1.4-5.6c-1-1.5-2.5-2.8-4.7-4.1
		s-5.3-2.6-9.5-4c-6.1-2.1-10.4-4.4-12.7-6.8s-3.5-5.7-3.5-9.8c0-4.5,1.8-8.1,5.3-11s8-4.2,13.6-4.2s10.9,1.1,15.9,3.2l-1.5,3.6
		c-5-2.1-9.7-3.1-14.3-3.1c-4.4,0-8,1-10.6,3.1s-3.9,4.8-3.9,8.4c0,2.2,0.4,4,1.2,5.5c0.8,1.4,2.1,2.7,4,3.8c1.8,1.1,5,2.5,9.4,4.1
		c4.7,1.6,8.2,3.2,10.5,4.7s4.1,3.2,5.1,5.2S787.2,114.5,787.2,117.2z"/>
</g>
<g>
	<path class="st0" d="M903.2,45.7v55.4c0,6.3-1.4,11.9-4.2,16.6c-2.8,4.8-6.9,8.4-12.3,11c-5.4,2.5-11.7,3.8-19,3.8
		c-11,0-19.6-2.8-25.7-8.5c-6.1-5.6-9.1-13.4-9.1-23.2V45.7H851v52.4c0,6.6,1.3,11.4,4,14.5s7.1,4.6,13.2,4.6
		c5.9,0,10.2-1.6,12.9-4.7s4-8,4-14.6V45.7H903.2z"/>
	<path class="st0" d="M974.2,131.3H958l-26.1-45.4h-0.4c0.5,8,0.8,13.7,0.8,17.1v28.2H921v-60h16l26,44.9h0.3
		c-0.4-7.8-0.6-13.3-0.6-16.5V71.2h11.4L974.2,131.3L974.2,131.3z"/>
	<path class="st0" d="M989.3,131.3v-60h12.7v60H989.3z"/>
	<path class="st0" d="M1051.3,71.4h12.8l-20.4,60h-13.9l-20.3-60h12.8l11.3,35.7c0.6,2.1,1.3,4.6,1.9,7.4c0.7,2.8,1.1,4.8,1.3,5.8
		c0.3-2.5,1.3-6.9,3.1-13.2L1051.3,71.4z"/>
	<path class="st0" d="M1106.2,131.3h-34.5v-60h34.5v10.4h-21.8v13.2h20.3v10.4h-20.3v15.5h21.8V131.3z"/>
	<path class="st0" d="M1131.4,108.3v23h-12.7v-60h17.5c8.1,0,14.2,1.5,18.1,4.5s5.9,7.5,5.9,13.5c0,3.5-1,6.7-2.9,9.4
		s-4.7,4.9-8.2,6.5c9,13.5,14.9,22.2,17.6,26.1h-14.1l-14.3-23H1131.4z M1131.4,98h4.1c4,0,7-0.7,8.9-2s2.9-3.4,2.9-6.3
		c0-2.8-1-4.9-2.9-6.1c-2-1.2-5-1.8-9.1-1.8h-3.9V98z"/>
	<path class="st0" d="M1209.6,114.7c0,5.4-1.9,9.7-5.8,12.8c-3.9,3.1-9.3,4.7-16.3,4.7c-6.4,0-12.1-1.2-17-3.6v-11.8
		c4,1.8,7.5,3.1,10.3,3.8s5.4,1.1,7.7,1.1c2.8,0,4.9-0.5,6.4-1.6s2.2-2.7,2.2-4.8c0-1.2-0.3-2.2-1-3.1c-0.7-0.9-1.6-1.8-2.9-2.6
		s-3.9-2.2-7.8-4.1c-3.7-1.7-6.4-3.4-8.2-5c-1.8-1.6-3.3-3.4-4.4-5.5c-1.1-2.1-1.6-4.6-1.6-7.4c0-5.3,1.8-9.5,5.4-12.5
		s8.6-4.6,14.9-4.6c3.1,0,6.1,0.4,8.9,1.1s5.8,1.8,8.9,3.1l-4.1,9.9c-3.2-1.3-5.8-2.2-7.9-2.7s-4.1-0.8-6.2-0.8
		c-2.4,0-4.3,0.6-5.5,1.7c-1.3,1.1-1.9,2.6-1.9,4.4c0,1.1,0.3,2.1,0.8,2.9s1.3,1.6,2.5,2.4s3.8,2.2,8.1,4.2
		c5.6,2.7,9.4,5.4,11.5,8.1C1208.5,107.5,1209.6,110.8,1209.6,114.7z"/>
	<path class="st0" d="M1220.4,131.3v-60h12.7v60H1220.4z"/>
	<path class="st0" d="M1271.4,131.3h-12.7V81.9h-16.3V71.3h45.3v10.6h-16.3V131.3z"/>
	<path class="st0" d="M1333.6,131.3l-4.3-14.3h-21.9l-4.3,14.3h-13.7l21.2-60.2h15.5l21.2,60.2H1333.6z M1326.2,106.4
		c-4-12.9-6.3-20.2-6.8-21.9c-0.5-1.7-0.9-3-1.1-4c-0.9,3.5-3.5,12.2-7.8,26L1326.2,106.4L1326.2,106.4z"/>
	<path class="st0" d="M1367.6,108.3v23h-12.7v-60h17.5c8.1,0,14.2,1.5,18.1,4.5s5.9,7.5,5.9,13.5c0,3.5-1,6.7-2.9,9.4
		s-4.7,4.9-8.2,6.5c9,13.5,14.9,22.2,17.6,26.1h-14.1l-14.3-23H1367.6z M1367.6,98h4.1c4,0,7-0.7,8.9-2s2.9-3.4,2.9-6.3
		c0-2.8-1-4.9-2.9-6.1c-2-1.2-5-1.8-9.1-1.8h-3.9V98z"/>
	<path class="st0" d="M1410.3,131.3v-60h12.7v60H1410.3z"/>
	<path class="st0" d="M1474.8,131.3l-4.3-14.3h-21.9l-4.3,14.3h-13.7l21.2-60.2h15.5l21.2,60.2H1474.8z M1467.4,106.4
		c-4-12.9-6.3-20.2-6.8-21.9c-0.5-1.7-0.9-3-1.1-4c-0.9,3.5-3.5,12.2-7.8,26L1467.4,106.4L1467.4,106.4z"/>
	<path class="st0" d="M1531.5,114.7c0,5.4-1.9,9.7-5.8,12.8c-3.9,3.1-9.3,4.7-16.3,4.7c-6.4,0-12.1-1.2-17-3.6v-11.8
		c4,1.8,7.5,3.1,10.3,3.8s5.4,1.1,7.7,1.1c2.8,0,4.9-0.5,6.4-1.6s2.2-2.7,2.2-4.8c0-1.2-0.3-2.2-1-3.1c-0.7-0.9-1.6-1.8-2.9-2.6
		s-3.9-2.2-7.8-4.1c-3.7-1.7-6.4-3.4-8.2-5c-1.8-1.6-3.3-3.4-4.4-5.5c-1.1-2.1-1.6-4.6-1.6-7.4c0-5.3,1.8-9.5,5.4-12.5
		s8.6-4.6,14.9-4.6c3.1,0,6.1,0.4,8.9,1.1s5.8,1.8,8.9,3.1l-4.1,9.9c-3.2-1.3-5.8-2.2-7.9-2.7s-4.1-0.8-6.2-0.8
		c-2.4,0-4.3,0.6-5.5,1.7c-1.3,1.1-1.9,2.6-1.9,4.4c0,1.1,0.3,2.1,0.8,2.9s1.3,1.6,2.5,2.4s3.8,2.2,8.1,4.2
		c5.6,2.7,9.4,5.4,11.5,8.1C1530.4,107.5,1531.5,110.8,1531.5,114.7z"/>
</g>
<path class="st1" d="M149.4,159.8h-27.6c-2.9,0-5.1,2.3-5.1,5.1s2.3,5.1,5.1,5.1h27.6c2.9,0,5.1-2.3,5.1-5.1
	S152.3,159.8,149.4,159.8L149.4,159.8z M183.6,73.7c-4-3.6-8.8-5-8.8-5L163.2,68c0,0-2.6-0.8-5.2-1.7c-2.6-0.8-5.2-1.7-5.3-1.7
	c-0.1-0.1-0.5-0.4-1-0.6c-0.5-0.2-1-0.5-1.1-0.6c-1.4-0.8-4.4-1.5-7.5-2.1c-3.1-0.6-6.2-0.8-8.1-0.8c-2-0.1-5.1,0.4-8,0.8
	c-2.9,0.6-5.6,1.3-7,2c-0.2,0.1-0.6,0.4-1.1,0.6c-0.5,0.2-0.8,0.5-1,0.6c-0.1,0-2.7,0.8-5.3,1.7c-2.6,0.8-5.2,1.7-5.2,1.7l-11.6,0.7
	c0,0-4.8,1.4-8.8,5c-4,3.6-7.4,9.1-4.8,17.5c0,0.1,1.4,3,2.7,5.7c1.4,2.7,2.7,5.6,2.7,5.6l2.7,9.4l1.3,5.1l1.3,5.1l3.4,11.3l2.1,8.7
	l2.1,8.7l0.4,1.1l0.5,0.5l0.1,0.1l0.1,0.1h21c0,0,0,0,0.1,0c2.4-0.1,4.3-2,4.3-4.4c0-2.5-2-4.5-4.5-4.5H112l3.1-30.7
	c0,0-2.3-0.6-4.8-2.5c-2.5-1.9-5.1-5.2-6.1-10.6c-0.1,0,19.2,0,19.2,0l-2.9,34.8h28.6l-2.9-34.8c0,0,19.4,0,19.2,0
	c-1,5.3-3.6,8.7-6.1,10.6c-2.5,1.9-4.8,2.5-4.8,2.5l3.1,30.7h-10.7c-2.5,0-4.5,2-4.4,4.5c0,2.3,1.8,4.2,4,4.4
	c0.1,0.1,0.2,0.1,0.2,0.1h21.4l0.8-0.5l0.5-1.8l4-17.1l3.4-11.3l2.5-10.3l2.7-9.4c0,0,1.4-2.7,2.7-5.6c1.4-2.7,2.7-5.6,2.7-5.7
	C191,82.8,187.7,77.2,183.6,73.7L183.6,73.7z"/>
<g transform="translate(0.000000,964.000000) scale(0.100000,-0.100000)">
	<path class="st0" d="M875.6,9646.3c0-4.5-2.3-15.6-5.1-24.7c-6.2-19.4-21.7-41.9-45-65c-17.9-17.5-39.2-41.9-48.1-54.4
		c-9.3-13.5-13.3-30.1-12.7-52.2c1.4-49.9,1.7-48.4-6.5-65c-10.5-21.7-14.4-26.3-38.6-45.4c-51-40-113.5-100.8-149-144.7
		c-23.9-29.3-22.5-28.4-20.8-17.5c2,13.5,9.5,27.8,23.6,45.3c24.7,30.2,34.9,61.4,31,94.1c-5,40-17.7,84.1-44.2,152.7
		c-8.2,21.1-13,28.8-8,13c1.7-5.6,3.7-17.9,4.3-27.6c1.1-14.9,0.2-20.6-4.3-38c-3.1-11.3-9-29.8-13.3-41.1
		c-10.7-27.3-20.2-56.9-22.5-70.9c-3.4-19.1,2.5-44.6,15.4-65.6c13-21.6,15.8-40.9,9.9-69c-2.6-12.6-5.7-18.1-25.5-47.3
		c-37.2-54.9-68.7-112.6-92.7-171.2c-10.7-25.5-10.1-25.3-19.7-6.5l-5.9,11.3v44.2c0,43.1-0.2,44.6-5.7,60.6c-3.3,9-7.6,19.4-9.9,23
		c-5.1,8.2-29.8,31.2-46.1,42.8c-13.3,9.6-104.4,56.6-109.5,56.6c-1.9,0,1.9-3.4,7.8-7.6c24.2-17.2,34.6-37.8,48.4-97.2
		c3.7-16.4,10.2-40.3,14.4-53.2c6.8-20.6,8.7-24.5,17.2-33.1c9.5-9.5,29.2-20.6,36.8-20.6c10.7,0,24.8-6.5,32.9-15.2
		c9.6-10.7,13-16.3,18.7-33.7l4.3-13.2l-6.4-18.7c-32.3-97.8-47-188.1-47.9-289c0-24.8-0.8-44.6-1.4-44.2
		c-3.9,2.3-10.9,22.8-16.4,48.7c-3.4,16-8.7,35.8-11.5,43.6c-6.4,17.5-21.6,44-31.2,53.8c-8.2,8.4-39.1,29.2-55.7,37.7
		c-20.9,10.3-123.3,44.8-123.3,41.3c0-0.6,5.6-3.7,12.1-6.8c26.3-12.4,45.4-37.7,74.9-99.1c20.6-42.8,38.3-72.6,47.9-81.1
		c14.1-12.6,29.8-18.9,49.9-20.8c21.6-1.7,31-6.2,44.6-21.1l10.2-11l2.5-31.5c8.7-104,31.6-199.4,71.5-295.4
		c6.4-15.6,13.3-31.8,15.6-36c2-4.3,2.9-7.8,1.9-7.8c-1.2,0-8,5.7-15.2,13c-9.5,9-18.1,20.9-30.2,41.1c-9.3,15.6-22.2,35.4-29,43.7
		c-14,17.5-42.5,41.3-60.5,50.1c-11.9,5.9-61.3,20.2-84.8,24.7c-18.7,3.4-124.2,10.2-155.6,10.1l-28.8-0.2l21.6-4.5
		c11.9-2.5,28.5-7.4,37-11c20.2-8.7,52.9-34.3,92.1-72.6c51.2-49.9,81.9-74,102.2-80.6c26.7-8.4,45-9.5,72.7-4.3
		c21.7,4.2,35.2,1.9,58.8-9.5c23.9-11.5,29.8-17.5,43.4-42.5c42.8-80.6,95.5-152.3,161.7-219.9l26.5-27.1l-12.7,3.1
		c-27.1,6.4-39.2,13.3-71.8,41.7c-42.2,36.8-61.3,48.7-97.4,61.1c-18.9,6.4-26.7,7.8-43.6,8.7c-21.1,0.8-68.4-4.5-99.7-11
		c-34.7-7.6-213.7-73.5-213.7-78.9c0-0.8,5.3,0,11.9,2c18.9,5.9,44.4,8.8,65,7.6c25.3-1.7,74.4-17.9,122.3-40.5
		c35.8-16.9,91.7-38.6,113.5-44.2c22.5-5.9,55.5-2.9,82.5,7.2c6.4,2.3,21.1,10.5,33.1,18.3c12.1,7.8,26.1,15.2,31.2,16.4
		c25.1,6.4,52.6,4.5,83.4-5.1c14-4.3,18.7-7.4,42.5-27.1c56.6-46.8,115.7-85.9,176.9-117.4c29.3-15,86.7-41.3,89.8-41.3
		c0.4,0,0.8,5.3,0.8,12.1c0,11.8-0.2,12.1-6.5,14.9c-54.7,21.7-127,61.4-181.9,99.7c-14.4,10.1-52.9,39.1-60,45.3
		c-2.5,2.3-6.2,29.8-6.4,47c0,32.3,4.2,43.7,25.5,71.8c22.2,29,33.5,63.6,31.5,96.4c-1.2,23.6-16.9,75.4-39.4,131.5
		c-14.9,37-27.6,78.9-32.3,106.5c-3.9,23,2,62.9,13.8,90.7c0.8,2,0.6,3.7-0.4,3.7c-5.6,0-84.5-181.3-92.7-212.7
		c-7.4-27.9-16.9-83-16.9-97.7c0-17.1,9.3-55.1,18.1-74.6c9.6-21.1,18.9-35.4,43.7-67.6c12.6-16,24.5-32.4,26.5-36.6
		c5-9.9,12.7-36,11.9-40c-0.8-4.5-45,36.4-77.1,71.3c-55.1,60.2-103,126.8-135.7,188.7l-10.2,19.5l1.7,18.3
		c2.6,28.8,11.5,52,25.9,69.3c3.1,3.4,12.1,10.7,20.2,15.6c17.7,11.3,27.6,20.6,39.1,36.6c21.7,30.7,23.6,39.9,24.7,130.6
		c1.1,72.1,3.4,107.9,8.7,123.3c5.7,17.2,16.9,38,27.1,51c5.7,7,9.6,12.7,8.8,12.7c-4.2,0-107.9-108.7-128.4-134.4
		c-10.9-14.1-43.6-69.3-48.5-82.2c-4.2-11-8.4-40.5-8.4-58c0-16.9,5.3-43.1,15.4-75.4c8.2-27,9.3-31.8,9-49.1
		c0-10.5-1.2-23.6-2.6-29.3l-2.5-10.2l-4.8,10.2c-28.4,61.3-46.5,111.2-62.7,173.7c-16,62.5-27.9,147-27.9,201.3
		c0,20.3,0.4,22,6.2,31c8,12.4,25.5,29.2,36.6,34.7c4.5,2.3,17.7,5.7,29,7.4c36.6,5.6,62.7,19.7,77.5,42.5
		c10.7,16,29,52.4,41.9,83.3c22.8,54.1,44.2,80.8,77.1,97.2c9,4.5,15,8.2,13.2,8.2c-7.2,0-108.5-36.8-146.7-53.5
		c-13.2-5.6-58.9-34.6-70.1-44c-4.8-4.2-13-14.4-18.5-23c-14-22.6-20.6-43.6-24.5-77.9c-1.7-15.8-3.7-31.5-4.3-34.9
		c-1.7-7.8-9.3-23.1-15-29.8l-4.3-5.1l1.1,11.3c0.4,6.2,1.4,24.5,2,40.3c3.1,80.2,22.6,179.9,51.2,260.7c5.1,14,10.5,28.2,12.4,31.5
		c5,9.9,28.8,30.7,42.8,37.4c14.6,7.2,22,7.8,54.1,5.3c21.6-1.7,40.9,1.4,55.5,8.8c9.6,4.8,40.8,36,63.7,64.2
		c11.8,14.1,29,33.3,38.6,42.8c19.5,18.9,34.9,27.3,59.8,32.7c8,1.7,15,3.4,15.6,4.2c3.7,3.9-141.9-9.3-161.6-14.9
		c-22-6.2-51-15.8-58.8-19.7c-11.5-5.9-33.3-27.3-42.5-41.9c-4.5-7.2-12.7-24-17.9-37.4c-5.3-13.3-12.4-27.8-15.4-32.1
		c-5.6-7.8-22.5-23.6-22.5-20.9c0,0.6,5,12.4,11,25.7c20.3,45.3,58,109.5,89.2,153.1c16,22,49.8,64.3,55.1,69
		c6.5,5.7,23.6,10.3,43,11.5c17.1,1.1,20,0.6,37.7-5.3c22.2-7.6,47-10.9,65.1-8.2c15.8,2.3,44.6,14.1,84.2,34.7
		c17.1,8.8,40,19.5,51.3,23.9c20,7.6,21.1,7.8,48.7,7.8c15.4,0.2,27.8,0.6,27.3,1.1c-1.4,1.2-40.5,8.4-88.2,16
		c-44.2,7.2-50.6,7.8-91.7,7.6c-43.1,0-44.6,0-58.2-5.6c-25.9-10.2-38.9-18.5-60.2-38.6c-20.3-19.5-24.8-22.8-40.5-29.3l-8-3.3
		l10.2,11.9c35.4,40.9,107.9,103.1,164.8,142c28.2,19.1,36.6,21.7,65.8,21.6c23.6-0.2,32.4-2.6,50.1-13.3
		c24.2-15,56.6-22.6,78.9-18.5c19.5,3.4,58.3,13.5,76.3,19.5c8.4,2.9,27.1,7.8,41.9,10.7c21.7,4.3,29.6,5.1,42.2,3.9
		c14.1-1.2,30.1-4.5,40.5-8.4c2.9-1.1,3.4-0.8,2,0.6c-2.9,2.9-53.5,22-101.7,38.4c-43.6,14.6-87.1,24-112,24.2
		c-17.7,0-40.8-4.8-55.7-11.5c-6.2-2.9-21.1-11.5-33.3-19.5c-12.1-7.8-23.9-14.9-26.1-15.4c-9.3-2.6-23.4-4.8-22.5-3.1
		c3.1,5.1,78.1,43.7,106.7,54.9l18.5,7.2l32.3-0.4c33.9-0.4,40.5,0.6,64.2,9.5c12.7,4.8,17.1,8,39.9,30.2
		c25.7,25.1,49.1,54.9,86.4,110.7c14.6,21.6,18.1,30.4,5.1,13c-3.4-5-12.7-13.5-20.3-19.4c-11-8.2-18.7-11.8-39.7-18.5
		c-14.1-4.8-34.7-10.5-45.4-13c-25.3-5.9-51.8-14.9-62.7-21.1c-10.2-6.2-22.8-20.6-38.6-44.4c-17.1-26.1-31.5-36.6-89-65.3
		c-44.4-22.2-79.7-42.5-113.2-65.3c-14-9.3-25.3-16.4-25.3-15.8s3.1,5.1,7,9.9c5,5.9,13.3,11.9,27.9,19.5
		c26.3,13.8,36.4,21.6,48.4,37c12.4,16,16,24.8,23.4,55.2c6.4,25.9,9.5,53.7,11.5,103c0.6,15.2,1.7,34.9,2.3,43.7
		c0.8,10.5,0.4,15.8-1.1,15.8C876.7,9654.3,875.6,9650.6,875.6,9646.3z"/>
	<path class="st0" d="M1803.9,9618.4c3.9-108.1,12.7-156,33.7-184.4c12.7-17.5,26.5-28.2,52.4-41.1c13.8-7,23.4-13.3,29.3-19.7
		c4.8-5.1,8.2-9.6,7.8-10.1c-0.4-0.4-9,4.8-18.9,11.3c-32.1,21.4-74.6,45.4-120,67.6c-66.4,32.4-80,42.2-97.7,69.5
		c-16.6,25.7-27.9,37-45,45c-14.6,6.8-48.7,17.2-72.1,21.7c-17.2,3.4-49.5,14-61.4,20c-5.7,2.9-17.2,11.9-25.7,20.3
		c-8.7,8.4-15.8,15.2-16.3,15.2c-1.4,0,27-39.9,53.2-75.2c31.8-43,62.5-73.2,85.1-84.1c23.6-11.5,38.4-14,72.6-12.6
		c27.8,1.2,30.2,1.1,44.8-3.9c20.6-6.8,58.6-24.5,89.6-41.3c29.6-16,32.7-18.3,21.1-16.4c-17.2,3.1-23.4,5.7-44,18.9
		c-27.9,17.9-39.4,23-63.6,27.9c-15,3.1-23.6,3.7-35.2,2.6c-28.4-2.5-68.1-11-103.6-22.8c-51-16.6-110.4-38.3-110.4-40.3
		c0-0.8,2.5-0.6,5.7,0.6c9.9,3.9,35.4,8,48.7,8c16.6,0,48.5-6.4,82.2-16.4c83.9-24.8,104.7-24.8,154.6,0.2
		c24.2,12.4,25.5,12.7,44.2,13.8c10.9,0.4,25.9-0.2,34.3-1.7c14-2.3,17.5-4.2,45.3-22.6c34.6-23,70.1-50.1,100.3-76.5
		c30.1-26.1,77.5-72.4,75-73.2c-5.7-1.9-26.1,10.7-43.4,27c-23.4,22-37.7,31.2-60.8,40.5l-18.5,7.2h-49.3c-45.4,0-52.6-0.6-91.5-6.5
		c-65.9-10.5-94.6-15.8-94.6-17.7c0-1.1,1.9-1.2,4.2-0.4c6.4,2,43,1.4,54.7-0.8c14.9-2.9,46.1-15.8,82-33.7
		c17.1-8.4,39.7-18.9,50.4-23.2c19.4-8,20-8,46.2-7.8c24.5,0,28.5,0.6,47.3,6.8c23.6,7.6,45.3,8.8,65.3,3.4c17.5-4.8,20-6.5,37.4-27
		c31-36,64.3-82.6,91.7-127.8c16.3-26.7,54.3-100.9,52.6-102.5c-0.6-0.6-7,4.8-14.1,11.9c-11,10.9-14.4,15.8-20.2,30.4
		c-16.4,41.7-27.8,59.6-49.9,78.1c-25.3,21.4-69.9,34.3-141.4,41.1c-50.7,4.8-113.7,7.4-94.7,4.2c15-2.9,34.7-9.6,45.6-15.8
		c12.4-7.2,39.2-33.5,62.7-61.3c24.8-29.6,55.1-58.6,67-64.3c5.3-2.6,17.2-6.2,26.7-8c15-2.6,20.3-2.9,39.9-0.6
		c20,2.3,24,2.3,33.9-0.6c14.4-4.2,28.2-13,43.4-27.6c10.5-10.1,13-14,20.2-32.3c22.8-58.9,41.7-132,50.6-194.6
		c5.1-36.4,9.3-84.8,9.3-108.7v-21.6l-4.2,5.1c-10.5,13.2-14.4,26.1-18.5,59.2c-2,17.7-5.3,37.4-7.4,43.6
		c-5.7,19.5-19.1,43-32.4,57.1c-6.5,7-49,34.3-69,44.6c-12.4,6.2-97.2,38.3-125.3,47c-9.6,3.1-21.4,7-26.1,8.4
		c-14,4.5-10.2,0.6,7.6-7.8c32.4-15.4,54.4-43.4,80.8-103.1c17.9-40.5,38-76.3,49.3-87.8c6.2-6.2,15.8-12.7,26.7-17.8
		c16.4-7.8,23.6-9.9,54.3-14.6c22.8-3.7,44-19.1,59.2-43c4.5-7.2,5.1-10.7,5.1-25.3c0-34.1-8-104.2-16.6-148.4
		c-10.5-53.5-29.3-116.9-48.7-164.7c-12.7-31-31.8-73-33.5-73c-2.5,0-5.9,23.4-5.9,39.2c0,13.2,1.7,20.9,9.3,45.3
		c12.1,38.4,15.4,55.2,15.4,78.3c-0.2,44.4-3.9,55.5-34.1,104c-13.2,21.4-24.8,36.8-41.9,55.5c-30.8,34.1-112.9,116.6-114.3,115.1
		c-0.6-0.8,3.4-7,9.3-14c11-14,22.6-34.3,27.8-49.5c5.7-17.8,10.1-67.6,8.4-102.5c-1.4-36.1,1.7-95.4,6.4-114.1
		c6.5-26.3,27-52.4,56.3-72.1c11.5-7.6,23.4-17.1,26.7-20.9c14.9-17.9,24.2-45.9,24.8-73.4c0.4-15.2,0.4-15.2-12.6-37.4
		c-41.9-72.1-90.7-135.8-147.3-193.2c-29.8-30.1-68.4-65.1-69.9-63.6c-1.7,1.4,7.4,31.6,12.1,40.9c2.3,4.8,15.4,22.8,29.2,39.9
		c25.7,32.4,41.3,56.9,48.7,76.6c8.2,21.6,14.1,49.3,14.1,65.6c0,18.9-13.8,89-21.7,111.2c-9,25.3-54.7,128.2-72.1,163.4
		c-16.6,33.1-25.1,44.6-15.6,21.6c13-32.3,14.4-68.2,4.5-107.3c-7.8-31.6-11.8-42.8-27.9-81.6c-22.2-53-41.7-116.9-41.7-136.6
		c0-14.4,7.2-42.2,15.6-60.5c3.7-8.4,12.6-22.2,19.5-30.8c16.6-20.6,22.2-33.1,24.8-55.7c2-15,1.9-21.6-0.8-38
		c-2-13-4.8-21.4-7-24.2c-9.6-10.5-73.5-54.9-113.8-78.8c-36.1-21.6-107.6-56.3-138.2-67.4c-3.1-1.1-3.7-3.7-3.7-13.8v-12.4
		l10.9,4.3c94.7,37.2,189.5,92.9,271.5,159.7c16.9,13.5,23.2,17.5,36,21.6c23.6,7.8,42.5,10.5,64.2,9c24-1.4,33.5-4.8,57.5-20.2
		c22-14,34.9-19.4,60.5-24.7c22-4.5,38.9-5,55.5-1.1c21.1,5.1,80.6,27.3,120.2,45.4c36.1,16.3,73.4,29.8,102.8,37.2
		c17.1,4.3,62.7,3.1,81.1-2.3c34.1-9.9,27.8-5.1-16.4,12.4c-52.2,20.8-163,58-185.6,62.5c-32.9,6.5-90.4,13-104.7,11.8
		c-15.4-1.7-43-9.5-63.7-18.1c-21.1-8.7-42.2-22.8-75.7-51c-32.4-27-41.5-32.9-60.6-38.9c-30.8-9.5-30.8-9.9,0.2,20.8
		c62.7,62.3,116.6,132.6,160.2,209.2c9.5,16.4,18.5,31.5,20.3,33.7c5.7,6.5,30.4,20,46.5,25.1c18.5,5.7,26.7,6.2,51.3,1.7
		c15.8-3.1,20.9-3.1,37.8-0.8c23.4,2.9,42.2,9.5,56.6,19.4c16.6,11.5,50.1,40.3,80.8,69.3c38.3,36.4,74,63.1,95.5,71.8
		c17.7,7,39.4,12.4,50.6,12.4c3.4,0,6.5,1.1,6.5,2.3c0,2.6-35.4,1.7-117.1-3.4c-58.8-3.7-76.5-6.2-118.2-17.5
		c-37.2-9.9-46.5-14-67.8-30.1c-24-17.9-42.5-39.2-64.8-74.9c-10.7-17.1-23.2-34.9-27.8-39.7c-7.4-7.6-21.6-18.9-21.6-17.2
		c0,0.4,5.1,12.1,11.5,26.3c45.6,102.3,72.7,206.4,81.4,313.2l2.5,31l10.2,10.9c15.6,16.6,21.4,19.4,43.6,21.1
		c23.9,1.7,43,9.9,56.9,24c10.7,10.9,32.3,47.5,51.8,87.6c25.7,52.4,45.9,77.7,72.6,90.2c7.2,3.3,12.6,6.4,12.1,6.8
		c-3.1,3.1-115.5-35.2-135.1-45.9c-23.6-13.2-49.8-32.1-56-40.8c-19.7-27-28.2-47.3-38.3-92.9c-5.6-24.7-13.2-45.9-16.4-45.9
		c-0.8,0-1.4,20.2-1.7,44.8c-0.2,49.8-2.6,79.7-10.2,129.9c-8.2,53.5-23,113.7-39.4,159.7l-5.9,16.6l3.7,12.1
		c5,15.6,15.4,32.7,24.8,40.3c5.6,4.5,12.6,7.2,25.1,9.9c24.5,5.1,44,18.3,52.6,34.9c5.3,10.2,17.9,52,22.8,75.7
		c4.3,20.9,14.1,51.8,20.8,65c5.1,10.1,23.4,28.2,32.3,31.6c3.4,1.7,6.4,3.4,6.4,4.5c0,5.7-106.1-47.9-125.9-63.7
		c-28.8-22.8-37-32.4-44.2-50.7c-6.5-17.1-12.1-50.4-9.9-59.2c0.6-2.6,1.2-14.6,1.4-26.7c0.2-21.6,0-22.6-7.4-37.4
		c-4.2-8.4-8.2-15.2-9-15.2c-0.8,0-4.5,7.6-8.4,17.1c-22.8,56.6-67,134.3-107.3,189.5c-15.2,20.6-18.9,32.4-19.1,59.6v20.8
		l10.7,18.3c11.5,20,19.1,43.6,19.1,58.8c0,11.5-11.3,49.5-23.9,80c-14.9,36.1-20,58.9-18.7,81.1c0.6,10.2,2.5,22.5,4.3,27.3
		c1.7,4.8,2.5,8.7,1.7,8.7s-3.1-3.9-5-8.7c-37.7-97.1-45-121.7-51-168.1c-2-15.4-1.9-19.4,2-33.9c5.7-22.5,13.8-38.3,29.8-57.5
		c7.4-9,15.4-19.7,17.5-23.9c4.3-8.2,9.3-26.1,7.8-27.6c-0.6-0.6-11,10.7-23.4,25.1c-42.2,49.1-93.1,97.2-151.8,143.1
		c-36.6,28.4-49.3,49.5-48.1,79.5c1.4,37.2,0.6,54.4-3.1,65.3c-4.8,14-21.7,35.4-53,66.8c-32.4,32.4-45.3,49.5-51.8,69.6
		c-2.9,8.7-5.3,18.3-5.6,21.6c0,3.1-1.1,7.6-2,9.9C1803.4,9647.8,1803.1,9637.9,1803.9,9618.4z"/>
</g>
</svg>
